<mxfile host="app.diagrams.net" modified="2023-10-16T21:46:09.658Z" agent="Mozilla/5.0 (Windows NT 10.0; Win64; x64) AppleWebKit/537.36 (KHTML, like Gecko) Chrome/118.0.0.0 Safari/537.36 Edg/118.0.2088.46" etag="GQhQVEQ8GMLllyyGu2Ky" version="22.0.4" type="device">
  <diagram id="C5RBs43oDa-KdzZeNtuy" name="Page-1">
    <mxGraphModel dx="1554" dy="875" grid="1" gridSize="10" guides="1" tooltips="1" connect="1" arrows="1" fold="1" page="1" pageScale="1" pageWidth="827" pageHeight="1169" math="0" shadow="0">
      <root>
        <mxCell id="WIyWlLk6GJQsqaUBKTNV-0" />
        <mxCell id="WIyWlLk6GJQsqaUBKTNV-1" parent="WIyWlLk6GJQsqaUBKTNV-0" />
        <mxCell id="_H61D78e8y3B9Mx7qabn-0" value="Desktop&amp;nbsp;" style="rounded=0;whiteSpace=wrap;html=1;" parent="WIyWlLk6GJQsqaUBKTNV-1" vertex="1">
          <mxGeometry x="40" y="250" width="50" height="60" as="geometry" />
        </mxCell>
        <mxCell id="_H61D78e8y3B9Mx7qabn-1" value="Mobile App" style="rounded=0;whiteSpace=wrap;html=1;" parent="WIyWlLk6GJQsqaUBKTNV-1" vertex="1">
          <mxGeometry x="40" y="360" width="50" height="60" as="geometry" />
        </mxCell>
        <mxCell id="_H61D78e8y3B9Mx7qabn-4" value="" style="rounded=0;whiteSpace=wrap;html=1;" parent="WIyWlLk6GJQsqaUBKTNV-1" vertex="1">
          <mxGeometry x="141.33" y="200" width="20" height="360" as="geometry" />
        </mxCell>
        <mxCell id="_H61D78e8y3B9Mx7qabn-6" value="" style="endArrow=classic;html=1;rounded=0;entryX=-0.02;entryY=0.213;entryDx=0;entryDy=0;entryPerimeter=0;" parent="WIyWlLk6GJQsqaUBKTNV-1" target="_H61D78e8y3B9Mx7qabn-4" edge="1">
          <mxGeometry width="50" height="50" relative="1" as="geometry">
            <mxPoint x="90" y="290" as="sourcePoint" />
            <mxPoint x="140" y="240" as="targetPoint" />
          </mxGeometry>
        </mxCell>
        <mxCell id="_H61D78e8y3B9Mx7qabn-14" value="1" style="edgeLabel;html=1;align=center;verticalAlign=middle;resizable=0;points=[];" parent="_H61D78e8y3B9Mx7qabn-6" vertex="1" connectable="0">
          <mxGeometry x="-0.0509" y="-2" relative="1" as="geometry">
            <mxPoint x="-10" y="-12" as="offset" />
          </mxGeometry>
        </mxCell>
        <mxCell id="_H61D78e8y3B9Mx7qabn-19" value="2" style="edgeLabel;html=1;align=center;verticalAlign=middle;resizable=0;points=[];" parent="_H61D78e8y3B9Mx7qabn-6" vertex="1" connectable="0">
          <mxGeometry x="-0.0509" y="-2" relative="1" as="geometry">
            <mxPoint x="165" y="134" as="offset" />
          </mxGeometry>
        </mxCell>
        <mxCell id="_H61D78e8y3B9Mx7qabn-7" value="" style="endArrow=classic;html=1;rounded=0;entryX=-0.02;entryY=0.213;entryDx=0;entryDy=0;entryPerimeter=0;exitX=1;exitY=0.5;exitDx=0;exitDy=0;" parent="WIyWlLk6GJQsqaUBKTNV-1" source="_H61D78e8y3B9Mx7qabn-1" edge="1">
          <mxGeometry width="50" height="50" relative="1" as="geometry">
            <mxPoint x="80" y="585" as="sourcePoint" />
            <mxPoint x="150" y="432" as="targetPoint" />
          </mxGeometry>
        </mxCell>
        <mxCell id="_H61D78e8y3B9Mx7qabn-8" value="API Gateway/Load&lt;br&gt;Balancer" style="whiteSpace=wrap;html=1;" parent="WIyWlLk6GJQsqaUBKTNV-1" vertex="1">
          <mxGeometry x="100" y="160" width="120" height="30" as="geometry" />
        </mxCell>
        <mxCell id="_H61D78e8y3B9Mx7qabn-18" value="" style="edgeStyle=orthogonalEdgeStyle;rounded=0;orthogonalLoop=1;jettySize=auto;html=1;" parent="WIyWlLk6GJQsqaUBKTNV-1" source="_H61D78e8y3B9Mx7qabn-10" target="_H61D78e8y3B9Mx7qabn-17" edge="1">
          <mxGeometry relative="1" as="geometry" />
        </mxCell>
        <mxCell id="_H61D78e8y3B9Mx7qabn-35" style="edgeStyle=orthogonalEdgeStyle;rounded=0;orthogonalLoop=1;jettySize=auto;html=1;exitX=1;exitY=0.25;exitDx=0;exitDy=0;" parent="WIyWlLk6GJQsqaUBKTNV-1" source="_H61D78e8y3B9Mx7qabn-10" target="_H61D78e8y3B9Mx7qabn-34" edge="1">
          <mxGeometry relative="1" as="geometry" />
        </mxCell>
        <mxCell id="_H61D78e8y3B9Mx7qabn-10" value="Invoice Payment System" style="whiteSpace=wrap;html=1;aspect=fixed;" parent="WIyWlLk6GJQsqaUBKTNV-1" vertex="1">
          <mxGeometry x="230" y="250" width="140" height="140" as="geometry" />
        </mxCell>
        <mxCell id="_H61D78e8y3B9Mx7qabn-12" style="edgeStyle=orthogonalEdgeStyle;rounded=0;orthogonalLoop=1;jettySize=auto;html=1;exitX=1;exitY=0.25;exitDx=0;exitDy=0;entryX=-0.003;entryY=0.349;entryDx=0;entryDy=0;entryPerimeter=0;" parent="WIyWlLk6GJQsqaUBKTNV-1" source="_H61D78e8y3B9Mx7qabn-4" target="_H61D78e8y3B9Mx7qabn-10" edge="1">
          <mxGeometry relative="1" as="geometry" />
        </mxCell>
        <mxCell id="_H61D78e8y3B9Mx7qabn-13" value="Payment Execution System" style="whiteSpace=wrap;html=1;aspect=fixed;" parent="WIyWlLk6GJQsqaUBKTNV-1" vertex="1">
          <mxGeometry x="580" y="130" width="110" height="110" as="geometry" />
        </mxCell>
        <mxCell id="_H61D78e8y3B9Mx7qabn-16" value="&lt;font style=&quot;font-size: 16px;&quot;&gt;1. User submit payment&lt;br&gt;2. Create payment to database.&lt;br&gt;3. Send the payment order to a message queue, and PES get the order out of queue..&lt;br&gt;4. PES stores the payment order to database&lt;br&gt;5. PES calls for external banking provider to do the payment.&lt;br&gt;6. PES updates the IPS the status of the payment once the payment completes.&lt;br&gt;7. IPS updates the payment status.&lt;/font&gt;" style="text;strokeColor=none;fillColor=none;html=1;whiteSpace=wrap;verticalAlign=middle;overflow=hidden;" parent="WIyWlLk6GJQsqaUBKTNV-1" vertex="1">
          <mxGeometry x="111" y="560" width="619" height="230" as="geometry" />
        </mxCell>
        <mxCell id="_H61D78e8y3B9Mx7qabn-17" value="Database" style="shape=cylinder3;whiteSpace=wrap;html=1;boundedLbl=1;backgroundOutline=1;size=15;" parent="WIyWlLk6GJQsqaUBKTNV-1" vertex="1">
          <mxGeometry x="260" y="480" width="60" height="80" as="geometry" />
        </mxCell>
        <mxCell id="_H61D78e8y3B9Mx7qabn-21" value="3" style="edgeLabel;html=1;align=center;verticalAlign=middle;resizable=0;points=[];" parent="WIyWlLk6GJQsqaUBKTNV-1" vertex="1" connectable="0">
          <mxGeometry x="425" y="280" as="geometry">
            <mxPoint x="-5" y="10" as="offset" />
          </mxGeometry>
        </mxCell>
        <mxCell id="_H61D78e8y3B9Mx7qabn-22" value="database" style="shape=cylinder3;whiteSpace=wrap;html=1;boundedLbl=1;backgroundOutline=1;size=15;" parent="WIyWlLk6GJQsqaUBKTNV-1" vertex="1">
          <mxGeometry x="767" y="320" width="60" height="80" as="geometry" />
        </mxCell>
        <mxCell id="_H61D78e8y3B9Mx7qabn-25" value="" style="endArrow=none;dashed=1;html=1;dashPattern=1 3;strokeWidth=2;rounded=0;" parent="WIyWlLk6GJQsqaUBKTNV-1" edge="1">
          <mxGeometry width="50" height="50" relative="1" as="geometry">
            <mxPoint x="245" y="100" as="sourcePoint" />
            <mxPoint x="785" y="100" as="targetPoint" />
          </mxGeometry>
        </mxCell>
        <mxCell id="_H61D78e8y3B9Mx7qabn-26" value="External Banking Services Provider" style="text;html=1;align=center;verticalAlign=middle;resizable=0;points=[];autosize=1;strokeColor=none;fillColor=none;" parent="WIyWlLk6GJQsqaUBKTNV-1" vertex="1">
          <mxGeometry x="390" y="60" width="210" height="30" as="geometry" />
        </mxCell>
        <mxCell id="_H61D78e8y3B9Mx7qabn-27" style="edgeStyle=orthogonalEdgeStyle;rounded=0;orthogonalLoop=1;jettySize=auto;html=1;entryX=0.577;entryY=0.947;entryDx=0;entryDy=0;entryPerimeter=0;" parent="WIyWlLk6GJQsqaUBKTNV-1" source="_H61D78e8y3B9Mx7qabn-13" target="_H61D78e8y3B9Mx7qabn-26" edge="1">
          <mxGeometry relative="1" as="geometry" />
        </mxCell>
        <mxCell id="_H61D78e8y3B9Mx7qabn-28" value="5" style="text;html=1;align=center;verticalAlign=middle;resizable=0;points=[];autosize=1;strokeColor=none;fillColor=none;" parent="WIyWlLk6GJQsqaUBKTNV-1" vertex="1">
          <mxGeometry x="530" y="110" width="30" height="30" as="geometry" />
        </mxCell>
        <mxCell id="_H61D78e8y3B9Mx7qabn-30" value="6" style="text;html=1;align=center;verticalAlign=middle;resizable=0;points=[];autosize=1;strokeColor=none;fillColor=none;" parent="WIyWlLk6GJQsqaUBKTNV-1" vertex="1">
          <mxGeometry x="425" y="150" width="30" height="30" as="geometry" />
        </mxCell>
        <mxCell id="_H61D78e8y3B9Mx7qabn-31" style="edgeStyle=orthogonalEdgeStyle;rounded=0;orthogonalLoop=1;jettySize=auto;html=1;exitX=0.75;exitY=1;exitDx=0;exitDy=0;entryX=1;entryY=1;entryDx=0;entryDy=-15;entryPerimeter=0;" parent="WIyWlLk6GJQsqaUBKTNV-1" source="_H61D78e8y3B9Mx7qabn-10" target="_H61D78e8y3B9Mx7qabn-17" edge="1">
          <mxGeometry relative="1" as="geometry" />
        </mxCell>
        <mxCell id="_H61D78e8y3B9Mx7qabn-32" value="7" style="text;html=1;align=center;verticalAlign=middle;resizable=0;points=[];autosize=1;strokeColor=none;fillColor=none;" parent="WIyWlLk6GJQsqaUBKTNV-1" vertex="1">
          <mxGeometry x="345" y="438" width="30" height="30" as="geometry" />
        </mxCell>
        <mxCell id="_H61D78e8y3B9Mx7qabn-36" style="edgeStyle=orthogonalEdgeStyle;rounded=0;orthogonalLoop=1;jettySize=auto;html=1;exitX=1;exitY=0.25;exitDx=0;exitDy=0;entryX=0.25;entryY=1;entryDx=0;entryDy=0;" parent="WIyWlLk6GJQsqaUBKTNV-1" source="_H61D78e8y3B9Mx7qabn-34" target="_H61D78e8y3B9Mx7qabn-13" edge="1">
          <mxGeometry relative="1" as="geometry" />
        </mxCell>
        <mxCell id="_H61D78e8y3B9Mx7qabn-34" value="Payment Order Queue" style="shape=step;perimeter=stepPerimeter;whiteSpace=wrap;html=1;fixedSize=1;" parent="WIyWlLk6GJQsqaUBKTNV-1" vertex="1">
          <mxGeometry x="435" y="260" width="120" height="80" as="geometry" />
        </mxCell>
        <mxCell id="_H61D78e8y3B9Mx7qabn-37" value="" style="edgeStyle=orthogonalEdgeStyle;rounded=0;orthogonalLoop=1;jettySize=auto;html=1;entryX=0.297;entryY=-0.035;entryDx=0;entryDy=0;entryPerimeter=0;" parent="WIyWlLk6GJQsqaUBKTNV-1" source="_H61D78e8y3B9Mx7qabn-13" target="_H61D78e8y3B9Mx7qabn-22" edge="1">
          <mxGeometry relative="1" as="geometry">
            <mxPoint x="770" y="265" as="targetPoint" />
            <mxPoint x="690" y="185" as="sourcePoint" />
          </mxGeometry>
        </mxCell>
        <mxCell id="_H61D78e8y3B9Mx7qabn-38" value="4" style="text;html=1;align=center;verticalAlign=middle;resizable=0;points=[];autosize=1;strokeColor=none;fillColor=none;" parent="WIyWlLk6GJQsqaUBKTNV-1" vertex="1">
          <mxGeometry x="785" y="218" width="30" height="30" as="geometry" />
        </mxCell>
        <mxCell id="_H61D78e8y3B9Mx7qabn-39" style="edgeStyle=orthogonalEdgeStyle;rounded=0;orthogonalLoop=1;jettySize=auto;html=1;entryX=0.557;entryY=0;entryDx=0;entryDy=0;entryPerimeter=0;" parent="WIyWlLk6GJQsqaUBKTNV-1" source="_H61D78e8y3B9Mx7qabn-13" target="_H61D78e8y3B9Mx7qabn-10" edge="1">
          <mxGeometry relative="1" as="geometry" />
        </mxCell>
      </root>
    </mxGraphModel>
  </diagram>
</mxfile>
